<svg width="12" height="12" viewBox="0 0 12 12" fill="none" xmlns="http://www.w3.org/2000/svg">
<g clip-path="url(#clip0_1_657)">
<path d="M5.31411 0.0383369C2.60764 0.340259 0.409504 2.4891 0.0535583 5.18896C-0.45077 9.0149 2.6771 12.2698 6.4658 11.9823C7.85949 11.8765 9.16402 11.2537 10.1862 10.3004L10.274 10.2186C10.375 10.1244 10.3805 9.96623 10.2863 9.86526L9.94517 9.49947C9.851 9.39848 9.69282 9.39297 9.59182 9.48714L9.40894 9.6577C8.27199 10.7178 6.71119 11.1948 5.13666 10.9266C2.90506 10.5466 1.18953 8.65197 1.01527 6.39494C0.784855 3.41034 3.19236 0.916235 6.14822 1.00213C8.87372 1.08138 11 3.4072 11 6.13384V6.49999C11 7.08438 10.4964 7.55308 9.90028 7.49514C9.38077 7.44461 9 6.97766 9 6.45566V4.25001C9 4.11192 8.88807 4 8.75 4H8.25C8.14962 4 8.06435 4.06 8.02458 4.14538C7.5215 3.59664 6.80138 3.25 6 3.25C4.48364 3.25 3.25001 4.48363 3.25001 5.99999C3.25001 7.51635 4.48364 8.75001 6 8.75001C6.9552 8.75001 7.79745 8.25995 8.2906 7.5186C8.66189 8.13911 9.35175 8.54802 10.137 8.49541C11.1988 8.42427 12 7.49355 12 6.42939V5.99999C12 2.46566 8.92807 -0.364835 5.31411 0.0383369ZM6 7.75C5.03515 7.75 4.25 6.96484 4.25 5.99999C4.25 5.03514 5.03515 4.24999 6 4.24999C6.96486 4.24999 7.75001 5.03514 7.75001 5.99999C7.75001 6.96484 6.96486 7.75 6 7.75Z" fill="#333333"/>
</g>
<defs>
<clipPath id="clip0_1_657">
<rect width="12" height="12" fill="white"/>
</clipPath>
</defs>
</svg>
